<?xml version="1.0" encoding="UTF-8"?>
<svg version="1.1" xmlns="http://www.w3.org/2000/svg" width="1024" height="1024">
<path d="M0 0 C337.92 0 675.84 0 1024 0 C1024 337.92 1024 675.84 1024 1024 C686.08 1024 348.16 1024 0 1024 C0 686.08 0 348.16 0 0 Z " fill="#FAFAFA" transform="translate(0,0)"/>
<path d="M0 0 C2.15316737 2.00063656 4.29064935 4.01751466 6.42602539 6.03710938 C7.98989375 7.50039498 9.57411202 8.93706106 11.16918945 10.36621094 C17.53718534 16.07700084 23.41385758 22.03215324 29.00512695 28.51464844 C29.92611574 29.55059324 30.84804085 30.58570615 31.77075195 31.62011719 C82.33112834 88.80957658 111.52996948 165.45561083 111.38012695 241.70214844 C111.3802478 242.65565186 111.38036865 243.60915527 111.38049316 244.59155273 C111.34953616 261.86556198 109.98529515 278.48474178 107.00512695 295.51464844 C106.76487793 296.92593018 106.76487793 296.92593018 106.51977539 298.36572266 C102.64530147 320.64600424 97.06775237 342.77027569 88.00512695 363.51464844 C87.69978027 364.22089355 87.39443359 364.92713867 87.07983398 365.65478516 C75.98493049 391.23485078 63.00843722 416.20757871 45.31079102 437.90576172 C43.86511766 439.68717297 42.44679082 441.48866351 41.02856445 443.29199219 C28.9966793 458.47777669 15.78076331 472.95154283 1.00512695 485.51464844 C0.14274414 486.25457031 -0.71963867 486.99449219 -1.6081543 487.75683594 C-32.21495496 513.68357101 -68.34297002 535.75271915 -106.79956055 547.74121094 C-109.18366634 548.54669226 -109.18366634 548.54669226 -112.14282227 549.93041992 C-115.93759739 551.56212476 -119.81730644 552.65280888 -123.82299805 553.63574219 C-124.56165604 553.82068741 -125.30031403 554.00563263 -126.06135559 554.19618225 C-128.45378653 554.79035597 -130.84881847 555.3727703 -133.24487305 555.95214844 C-134.06390106 556.15163086 -134.88292908 556.35111328 -135.72677612 556.55664062 C-158.23052221 562.00644311 -180.89900337 565.6230379 -204.1003418 565.71777344 C-205.22265701 565.72347351 -206.34497223 565.72917358 -207.501297 565.73504639 C-209.86690346 565.74443197 -212.23252262 565.75100448 -214.59814453 565.75488281 C-218.12842166 565.76450144 -221.65809346 565.7955522 -225.18823242 565.82714844 C-298.4613026 566.16887101 -369.67891071 537.74226378 -425.99487305 491.51464844 C-426.85532227 490.81082031 -426.85532227 490.81082031 -427.7331543 490.09277344 C-443.11348517 477.40655817 -457.83389378 463.34026061 -469.99487305 447.51464844 C-470.86721748 446.46187731 -471.74382322 445.41262824 -472.6237793 444.36621094 C-507.74517801 402.26819511 -529.04885595 351.04762283 -538.99487305 297.51464844 C-539.21240234 296.36915527 -539.42993164 295.22366211 -539.65405273 294.04345703 C-542.80687124 276.79317902 -543.36101448 259.8218361 -543.36987305 242.32714844 C-543.37186707 241.28683472 -543.37386108 240.246521 -543.37591553 239.17468262 C-543.3730174 225.83330335 -542.73292575 212.74439265 -540.99487305 199.51464844 C-540.865 198.49185791 -540.73512695 197.46906738 -540.60131836 196.4152832 C-537.15095759 171.25990906 -529.96562185 145.8366234 -519.99487305 122.51464844 C-519.63925293 121.67691895 -519.28363281 120.83918945 -518.91723633 119.97607422 C-505.75597444 89.24322029 -488.6363246 61.03274261 -466.99487305 35.51464844 C-466.110247 34.44475863 -465.22616381 33.37441981 -464.3425293 32.30371094 C-458.76088997 25.60155132 -452.90933322 19.24879581 -446.74487305 13.07714844 C-445.77118774 12.10225464 -445.77118774 12.10225464 -444.77783203 11.10766602 C-440.33973543 6.72026477 -435.73705273 2.56996941 -430.99487305 -1.48535156 C-430.36742187 -2.02490479 -429.7399707 -2.56445801 -429.09350586 -3.12036133 C-390.66626962 -35.93991356 -344.2857238 -61.15298881 -294.75048828 -72.14306641 C-291.83363245 -72.79172817 -289.01052987 -73.4798346 -286.19018555 -74.47363281 C-200.6986478 -101.54246934 -93.99004519 -69.61027269 0 0 Z " fill="#37A2BC" transform="translate(727.994873046875,256.4853515625)"/>
<path d="M0 0 C2.15316737 2.00063656 4.29064935 4.01751466 6.42602539 6.03710938 C7.98989375 7.50039498 9.57411202 8.93706106 11.16918945 10.36621094 C17.53718534 16.07700084 23.41385758 22.03215324 29.00512695 28.51464844 C29.92611574 29.55059324 30.84804085 30.58570615 31.77075195 31.62011719 C82.33112834 88.80957658 111.52996948 165.45561083 111.38012695 241.70214844 C111.3802478 242.65565186 111.38036865 243.60915527 111.38049316 244.59155273 C111.34953616 261.86556198 109.98529515 278.48474178 107.00512695 295.51464844 C106.76487793 296.92593018 106.76487793 296.92593018 106.51977539 298.36572266 C102.64530147 320.64600424 97.06775237 342.77027569 88.00512695 363.51464844 C87.69978027 364.22089355 87.39443359 364.92713867 87.07983398 365.65478516 C75.98493049 391.23485078 63.00843722 416.20757871 45.31079102 437.90576172 C43.86511766 439.68717297 42.44679082 441.48866351 41.02856445 443.29199219 C28.9966793 458.47777669 15.78076331 472.95154283 1.00512695 485.51464844 C0.14274414 486.25457031 -0.71963867 486.99449219 -1.6081543 487.75683594 C-32.21495496 513.68357101 -68.34297002 535.75271915 -106.79956055 547.74121094 C-109.18366634 548.54669226 -109.18366634 548.54669226 -112.14282227 549.93041992 C-115.93759739 551.56212476 -119.81730644 552.65280888 -123.82299805 553.63574219 C-124.56165604 553.82068741 -125.30031403 554.00563263 -126.06135559 554.19618225 C-128.45378653 554.79035597 -130.84881847 555.3727703 -133.24487305 555.95214844 C-134.06390106 556.15163086 -134.88292908 556.35111328 -135.72677612 556.55664062 C-158.23052221 562.00644311 -180.89900337 565.6230379 -204.1003418 565.71777344 C-205.22265701 565.72347351 -206.34497223 565.72917358 -207.501297 565.73504639 C-209.86690346 565.74443197 -212.23252262 565.75100448 -214.59814453 565.75488281 C-218.12842166 565.76450144 -221.65809346 565.7955522 -225.18823242 565.82714844 C-298.4613026 566.16887101 -369.67891071 537.74226378 -425.99487305 491.51464844 C-426.85532227 490.81082031 -426.85532227 490.81082031 -427.7331543 490.09277344 C-443.11348517 477.40655817 -457.83389378 463.34026061 -469.99487305 447.51464844 C-470.86721748 446.46187731 -471.74382322 445.41262824 -472.6237793 444.36621094 C-507.74517801 402.26819511 -529.04885595 351.04762283 -538.99487305 297.51464844 C-539.21240234 296.36915527 -539.42993164 295.22366211 -539.65405273 294.04345703 C-542.80687124 276.79317902 -543.36101448 259.8218361 -543.36987305 242.32714844 C-543.37186707 241.28683472 -543.37386108 240.246521 -543.37591553 239.17468262 C-543.3730174 225.83330335 -542.73292575 212.74439265 -540.99487305 199.51464844 C-540.865 198.49185791 -540.73512695 197.46906738 -540.60131836 196.4152832 C-537.15095759 171.25990906 -529.96562185 145.8366234 -519.99487305 122.51464844 C-519.63925293 121.67691895 -519.28363281 120.83918945 -518.91723633 119.97607422 C-505.75597444 89.24322029 -488.6363246 61.03274261 -466.99487305 35.51464844 C-466.110247 34.44475863 -465.22616381 33.37441981 -464.3425293 32.30371094 C-458.76088997 25.60155132 -452.90933322 19.24879581 -446.74487305 13.07714844 C-445.77118774 12.10225464 -445.77118774 12.10225464 -444.77783203 11.10766602 C-440.33973543 6.72026477 -435.73705273 2.56996941 -430.99487305 -1.48535156 C-430.36742187 -2.02490479 -429.7399707 -2.56445801 -429.09350586 -3.12036133 C-390.66626962 -35.93991356 -344.2857238 -61.15298881 -294.75048828 -72.14306641 C-291.83363245 -72.79172817 -289.01052987 -73.4798346 -286.19018555 -74.47363281 C-200.6986478 -101.54246934 -93.99004519 -69.61027269 0 0 Z M-234.74487305 -2.23535156 C-236.90599498 -1.06285631 -239.06746844 0.1089912 -241.22924805 1.28027344 C-241.80647614 1.59712601 -242.38370422 1.91397858 -242.97842407 2.24043274 C-259.17681288 11.12743934 -275.69649461 19.43805159 -292.15985107 27.81991577 C-310.80791587 37.31544407 -329.42551789 46.86608882 -347.99487305 56.51464844 C-350.2083846 57.66314397 -352.42192638 58.81158127 -354.63549805 59.95996094 C-365.16075698 65.4237175 -375.67538487 70.90675165 -386.16137695 76.44555664 C-386.87600098 76.82284912 -387.590625 77.2001416 -388.3269043 77.58886719 C-388.94283447 77.91459717 -389.55876465 78.24032715 -390.19335938 78.57592773 C-392.11636654 79.57795545 -394.05290463 80.54995628 -395.99487305 81.51464844 C-395.99487305 82.17464844 -395.99487305 82.83464844 -395.99487305 83.51464844 C-396.98745117 83.76601563 -397.9800293 84.01738281 -399.00268555 84.27636719 C-403.22009351 85.48391562 -406.98152064 87.32110356 -410.86987305 89.32714844 C-411.91498047 89.85791992 -411.91498047 89.85791992 -412.98120117 90.39941406 C-418.05048161 92.98828379 -423.0657273 95.66669756 -427.99487305 98.51464844 C-427.99487305 99.17464844 -427.99487305 99.83464844 -427.99487305 100.51464844 C-428.73737305 100.41152344 -429.47987305 100.30839844 -430.24487305 100.20214844 C-433.1809982 100.2466881 -433.1809982 100.2466881 -435.18237305 102.70214844 C-439.0324343 108.67638141 -439.28365614 113.43086764 -439.25556946 120.37669373 C-439.25939501 121.37720278 -439.26322055 122.37771184 -439.26716202 123.40853935 C-439.27749008 126.76484448 -439.2735002 130.12097847 -439.26953125 133.47729492 C-439.27387781 135.88206135 -439.27906077 138.28682638 -439.28501892 140.69158936 C-439.29703292 146.5477045 -439.29955964 152.40377712 -439.29721866 158.25989991 C-439.29543539 163.01993686 -439.29718532 167.7799599 -439.3014431 172.53999519 C-439.30203829 173.21754891 -439.30263348 173.89510263 -439.3032467 174.59318827 C-439.30445846 175.96965122 -439.30567259 177.34611416 -439.30688908 178.7225771 C-439.31776452 191.62989837 -439.31560206 204.53719351 -439.30950423 217.44451625 C-439.30433462 229.25128849 -439.31559165 241.05797824 -439.33460245 252.86473417 C-439.3539763 264.9899623 -439.36223768 277.11515141 -439.3584792 289.24039513 C-439.35656652 296.0469888 -439.35906123 302.85351226 -439.37319374 309.66009331 C-439.38634708 316.05980833 -439.38385368 322.45939942 -439.37078285 328.8591156 C-439.36841163 331.20932127 -439.37117117 333.55953848 -439.37940598 335.90973091 C-439.3898287 339.11522048 -439.38180838 342.32015033 -439.36909485 345.52561951 C-439.38015628 346.92421153 -439.38015628 346.92421153 -439.39144117 348.35105795 C-439.34851092 353.48785146 -438.87743003 357.07568006 -435.99487305 361.51464844 C-433.84277383 363.32475432 -433.84277383 363.32475432 -431.26831055 364.62792969 C-430.32665039 365.14943604 -429.38499023 365.67094238 -428.41479492 366.20825195 C-427.4099707 366.74248779 -426.40514648 367.27672363 -425.36987305 367.82714844 C-423.82783203 368.67200806 -423.82783203 368.67200806 -422.25463867 369.53393555 C-419.17782942 371.21312953 -416.08908394 372.86777874 -412.99487305 374.51464844 C-411.69211426 375.21170898 -411.69211426 375.21170898 -410.36303711 375.92285156 C-406.78077268 377.83743545 -403.1914879 379.7367964 -399.58862305 381.61230469 C-397.06493237 382.92684096 -394.60405181 384.31869824 -392.15112305 385.76074219 C-389.30530948 387.67656003 -389.30530948 387.67656003 -386.99487305 387.51464844 C-386.99487305 388.17464844 -386.99487305 388.83464844 -386.99487305 389.51464844 C-384.87204635 390.51925375 -382.74654284 391.51820446 -380.61987305 392.51464844 C-379.43651367 393.07152344 -378.2531543 393.62839844 -377.03393555 394.20214844 C-374.24058729 395.64680885 -374.24058729 395.64680885 -371.99487305 395.51464844 C-371.99487305 396.17464844 -371.99487305 396.83464844 -371.99487305 397.51464844 C-370.08075748 398.49879276 -368.16347635 399.47678193 -366.24487305 400.45214844 C-365.1775293 400.99742187 -364.11018555 401.54269531 -363.01049805 402.10449219 C-360.6104142 403.22681119 -358.57630553 404.01966502 -355.99487305 404.51464844 C-355.99487305 405.17464844 -355.99487305 405.83464844 -355.99487305 406.51464844 C-353.394268 407.85535161 -350.78982389 409.18738197 -348.18237305 410.51464844 C-347.44438477 410.89621094 -346.70639648 411.27777344 -345.94604492 411.67089844 C-345.23383789 412.03183594 -344.52163086 412.39277344 -343.7878418 412.76464844 C-342.80593872 413.26738281 -342.80593872 413.26738281 -341.80419922 413.78027344 C-339.85702755 414.70269107 -339.85702755 414.70269107 -336.99487305 414.51464844 C-336.99487305 415.17464844 -336.99487305 415.83464844 -336.99487305 416.51464844 C-335.87854492 417.09730469 -334.7622168 417.67996094 -333.61206055 418.28027344 C-324.73710338 422.92544333 -315.90288058 427.6352055 -307.11987305 432.45214844 C-299.95006405 436.3830474 -292.74840683 440.24049628 -285.49487305 444.01464844 C-275.53051643 449.20257079 -265.66706711 454.56460154 -255.81811523 459.96777344 C-250.04795256 463.12928768 -244.26755797 466.2720917 -238.48925781 469.41870117 C-237.63904053 469.88219971 -236.78882324 470.34569824 -235.9128418 470.82324219 C-235.09340088 471.26885498 -234.27395996 471.71446777 -233.4296875 472.17358398 C-231.77954793 473.08245962 -230.13759645 474.0063329 -228.50341797 474.94360352 C-227.31969604 475.62072388 -227.31969604 475.62072388 -226.11206055 476.31152344 C-225.41580566 476.7159668 -224.71955078 477.12041016 -224.00219727 477.53710938 C-220.15018055 479.4129881 -217.12858259 479.53591785 -212.99487305 478.51464844 C-207.44614233 476.2423111 -202.25060381 473.38869728 -196.99487305 470.51464844 C-195.12961203 469.51218368 -193.2636918 468.51094482 -191.3972168 467.51074219 C-185.24842149 464.20548086 -179.12094908 460.86177438 -172.99487305 457.51464844 C-171.10959781 456.48704518 -169.22418549 455.45969336 -167.33862305 454.43261719 C-160.12674924 450.50288972 -152.9178846 446.56768958 -145.71362305 442.62402344 C-135.58239404 437.08208302 -125.42682249 431.58788454 -115.24487305 426.13964844 C-114.65738281 425.82527832 -114.06989258 425.5109082 -113.46459961 425.18701172 C-111.08474897 423.91362863 -108.7048368 422.64036058 -106.32489014 421.36715698 C-86.1531427 410.5991907 -86.1531427 410.5991907 -66.11987305 399.57714844 C-57.39631748 394.69456137 -48.58051782 389.98635047 -39.76367188 385.27514648 C-31.766432 381.00165165 -23.78018814 376.70862127 -15.80737305 372.38964844 C-14.366604 371.60980591 -14.366604 371.60980591 -12.89672852 370.81420898 C-11.10155779 369.84096387 -9.30938904 368.86215431 -7.52075195 367.87695312 C-5.85395645 366.97798551 -4.16835025 366.11295293 -2.46508789 365.28515625 C-1.67440918 364.8890918 -0.88373047 364.49302734 -0.0690918 364.08496094 C0.62224854 363.75512207 1.31358887 363.4252832 2.02587891 363.08544922 C5.53276029 360.30226495 7.64475753 356.67888619 8.37577629 352.28867352 C8.51949071 349.69797728 8.53834251 347.13405117 8.51306152 344.53944397 C8.51930149 343.55088785 8.52554145 342.56233173 8.5319705 341.54381937 C8.54789311 338.23966184 8.53529863 334.93624275 8.52270508 331.63208008 C8.52812653 329.2598172 8.53524932 326.8875577 8.54394531 324.51530457 C8.56028666 318.7456244 8.55790112 312.97617786 8.54629475 307.20649058 C8.5372504 302.51563312 8.53604075 297.82483395 8.54039001 293.13397026 C8.54130941 292.13140145 8.54130941 292.13140145 8.54224738 291.10857872 C8.54352633 289.75064129 8.54482318 288.39270388 8.54613775 287.03476649 C8.5575368 274.30903547 8.54444095 261.58341982 8.52293628 248.85770773 C8.50506998 237.94747979 8.50816679 227.03742213 8.52661133 216.12719727 C8.5480371 203.44764941 8.55643391 190.76820263 8.54416227 178.0886392 C8.54288812 176.73547361 8.54163064 175.382308 8.54039001 174.02914238 C8.53977291 173.36341831 8.53915581 172.69769423 8.53852001 172.0117967 C8.5350719 167.32914927 8.54108008 162.64658549 8.55030823 157.96394539 C8.56187087 151.65604681 8.55383284 145.34846946 8.5307312 139.04060555 C8.52544618 136.72672051 8.5269543 134.4128084 8.53578186 132.09893417 C8.54672873 128.93787114 8.53298293 125.77783438 8.51306152 122.61683655 C8.52198441 121.70330463 8.5309073 120.78977271 8.54010057 119.84855801 C8.46766948 113.91440191 7.29796717 109.5000254 4.00512695 104.51464844 C1.01083626 101.59648378 -2.74823093 100.0728105 -6.49487305 98.26464844 C-14.42097384 94.37656954 -22.21581761 90.24953453 -29.99487305 86.07714844 C-30.60681519 85.74911224 -31.21875732 85.42107605 -31.84924316 85.08309937 C-38.85729221 81.32247108 -45.83623305 77.51787415 -52.74487305 73.57714844 C-58.15140468 70.49651162 -63.63155561 67.63751324 -69.21337891 64.88842773 C-76.12383502 61.47763056 -82.96616293 57.9366103 -89.80737305 54.38964844 C-90.94021729 53.80352783 -92.07306152 53.21740723 -93.24023438 52.61352539 C-98.29679194 49.98923602 -103.33338078 47.34166731 -108.3190918 44.58496094 C-113.3534253 41.82197801 -118.46898582 39.2481188 -123.61091614 36.69366455 C-130.97207767 33.03640294 -138.29349314 29.30336754 -145.60620117 25.55029297 C-147.12527633 24.7714229 -148.64514478 23.99409827 -150.16577148 23.21826172 C-157.88158099 19.28138919 -165.51362023 15.32785819 -172.89233398 10.77978516 C-176.06345395 8.8716635 -179.35243724 7.24905255 -182.68237305 5.63964844 C-188.87431733 2.60052062 -194.98045525 -0.56638247 -201.03466797 -3.87158203 C-213.89359925 -10.83735876 -222.17805426 -9.29769601 -234.74487305 -2.23535156 Z " fill="#0F1A30" transform="translate(727.994873046875,256.4853515625)"/>
<path d="M0 0 C3.55869147 1.42347659 6.8046371 2.86174893 10.18359375 4.6171875 C11.18132812 5.13506836 12.1790625 5.65294922 13.20703125 6.18652344 C14.27308594 6.7437207 15.33914063 7.30091797 16.4375 7.875 C17.55640625 8.45797852 18.6753125 9.04095703 19.828125 9.64160156 C26.76233829 13.26773178 33.64762675 16.97194888 40.5 20.75 C49.74390469 25.84528222 59.10599505 30.68965083 68.5 35.5 C78.77597981 40.76197839 88.98887935 46.104765 99.09765625 51.68359375 C105.84374511 55.39750391 112.65799611 58.96626939 119.5 62.5 C127.42780565 66.59532309 135.30513688 70.76456534 143.125 75.0625 C151.50966195 79.67053345 159.95294824 84.151325 168.44775391 88.55297852 C176.99510534 92.98191659 185.49022488 97.49482494 194 102 C194 173.28 194 244.56 194 318 C188.12402431 316.04134144 182.25871672 314.06495975 176.40625 312.0390625 C174.78132167 311.47895871 173.1563192 310.91906995 171.53125 310.359375 C169.02796925 309.49704734 166.52507331 308.63369063 164.0234375 307.76660156 C153.94144263 304.27391048 143.84160621 300.97335854 133.58251953 298.0378418 C130.49195837 297.1425184 127.43301503 296.18696937 124.375 295.1875 C120.37869396 294.0331616 117.17613008 293.22664258 113 294 C103.10784608 300.03982783 97.25671014 311.98052708 94.40722656 322.87060547 C93.61038044 327.03732723 93.52405206 331.20511267 93.5 335.4375 C93.49371582 336.27780762 93.48743164 337.11811523 93.48095703 337.98388672 C93.64198082 345.82715202 96.53930288 351.46891146 100.5625 358.125 C102.71743164 361.69338142 104.49637553 365.11696434 106 369 C105.41847168 369.30067383 104.83694336 369.60134766 104.23779297 369.91113281 C93.47566749 375.4827595 82.7445762 381.09800128 72.125 386.9375 C64.224018 391.28154018 56.2613029 395.48808032 48.25 399.625 C41.09169642 403.3241188 33.96805525 407.06298573 26.9375 411 C26.24664307 411.38534912 25.55578613 411.77069824 24.84399414 412.16772461 C21.55193521 414.00615688 18.26362637 415.8507397 14.98242188 417.70849609 C11.72483587 419.54835638 8.45697536 421.36886809 5.1875 423.1875 C4.15423584 423.77724609 3.12097168 424.36699219 2.05639648 424.97460938 C1.08259033 425.51279297 0.10878418 426.05097656 -0.89453125 426.60546875 C-1.75925049 427.09168701 -2.62396973 427.57790527 -3.51489258 428.07885742 C-6.60494876 429.22423339 -7.88383477 429.03267586 -11 428 C-13.29156793 426.92273085 -15.4947191 425.81268199 -17.71484375 424.60546875 C-18.35825211 424.26213501 -19.00166046 423.91880127 -19.66456604 423.56506348 C-21.7589172 422.44537886 -23.84816624 421.31651499 -25.9375 420.1875 C-27.39294669 419.40743171 -28.8486782 418.62789462 -30.3046875 417.84887695 C-39.27115798 413.04400651 -48.19366118 408.16080464 -57.10424805 403.25317383 C-64.73578069 399.08002667 -72.50967664 395.21695674 -80.30688477 391.36474609 C-87.91328752 387.58976712 -95.33906603 383.56027545 -102.734375 379.390625 C-107.18476983 376.88341829 -111.67688021 374.45939775 -116.1875 372.0625 C-116.87062256 371.69680908 -117.55374512 371.33111816 -118.25756836 370.9543457 C-122.42827716 368.74693059 -126.63926102 366.80424868 -131 365 C-131 364.34 -131 363.68 -131 363 C-131.804375 362.7525 -132.60875 362.505 -133.4375 362.25 C-141.223106 359.51820842 -148.14695363 355.86070799 -155.203125 351.5859375 C-157.777181 350.12634709 -160.25253173 349.08123568 -163 348 C-165.79234555 346.66766669 -168.55175106 345.27141099 -171.3125 343.875 C-172.05306641 343.50246094 -172.79363281 343.12992188 -173.55664062 342.74609375 C-175.37201217 341.83255194 -177.18613282 340.91652513 -179 340 C-179 339.34 -179 338.68 -179 338 C-179.53625 337.88785156 -180.0725 337.77570313 -180.625 337.66015625 C-189.57628107 335.40761348 -197.12698078 330.65934264 -205 326 C-205 325.01 -205 324.02 -205 323 C-200.04118072 321.03423842 -195.07896472 319.07739724 -190.11352539 317.12841797 C-188.42801416 316.46544054 -186.74342329 315.80011795 -185.05981445 315.13232422 C-182.62695033 314.16782875 -180.19080088 313.21207134 -177.75390625 312.2578125 C-177.01290176 311.96190216 -176.27189728 311.66599182 -175.50843811 311.3611145 C-162.04826919 306.12448652 -162.04826919 306.12448652 -157.0390625 308.265625 C-156.24242187 308.92046875 -155.44578125 309.5753125 -154.625 310.25 C-153.40683594 311.21679688 -153.40683594 311.21679688 -152.1640625 312.203125 C-151.09285156 313.09257813 -151.09285156 313.09257813 -150 314 C-149.01 314.66 -148.02 315.32 -147 316 C-146.65942383 318.06298828 -146.65942383 318.06298828 -146.70703125 320.5703125 C-146.7215332 321.91416016 -146.7215332 321.91416016 -146.73632812 323.28515625 C-146.76146484 324.22230469 -146.78660156 325.15945313 -146.8125 326.125 C-146.83280273 327.54232422 -146.83280273 327.54232422 -146.85351562 328.98828125 C-146.88893694 331.32608779 -146.93832729 333.66276237 -147 336 C-145.95199219 336.27714844 -144.90398437 336.55429687 -143.82421875 336.83984375 C-142.44529933 337.20567952 -141.0663938 337.57156767 -139.6875 337.9375 C-138.99720703 338.11990234 -138.30691406 338.30230469 -137.59570312 338.49023438 C-134.70112156 339.2593261 -131.84215271 340.05261576 -129 341 C-128.89042969 340.443125 -128.78085937 339.88625 -128.66796875 339.3125 C-127.55724752 333.96658969 -126.02774474 329.06936184 -124 324 C-121.79142945 324.14219564 -119.58315013 324.28891847 -117.375 324.4375 C-116.14523437 324.51871094 -114.91546875 324.59992188 -113.6484375 324.68359375 C-110 325 -110 325 -107.27270508 325.50927734 C-103.49712658 326.07540288 -99.79599662 326.16153355 -95.98828125 326.16796875 C-95.22696899 326.17220352 -94.46565674 326.17643829 -93.68127441 326.18080139 C-91.22495969 326.19066052 -88.76883096 326.19072647 -86.3125 326.1875 C-85.47343109 326.18689575 -84.63436218 326.1862915 -83.76986694 326.18566895 C-71.7229834 326.1620281 -59.92136769 325.85962737 -48 324 C-47.01563965 323.84982422 -46.0312793 323.69964844 -45.01708984 323.54492188 C-40.54289402 322.86040414 -36.06979707 322.16997853 -31.59960938 321.4597168 C-25.34442526 320.47376582 -19.11757531 319.64049461 -12.8125 319.0625 C3.33978316 317.53207955 19.33420574 314.46721014 35.3240509 311.76248169 C38.61984442 311.20534814 41.91603668 310.65058892 45.21218872 310.09558105 C47.58667418 309.69398208 49.96022565 309.28717506 52.33374023 308.87988281 C53.79798524 308.63198962 55.26225797 308.38426009 56.7265625 308.13671875 C58.01127441 307.91717529 59.29598633 307.69763184 60.61962891 307.47143555 C63.47995513 307.07252684 66.12078283 306.89999377 69 307 C68.88916928 302.5203666 68.75876812 298.04150251 68.625 293.5625 C68.57859375 291.67241211 68.57859375 291.67241211 68.53125 289.74414062 C68.10007093 275.98234182 65.58265521 263.06543565 55.82421875 252.58984375 C44.78540807 242.96929569 33.25908649 239.81214007 18.9375 239.875 C18.05255859 239.87113281 17.16761719 239.86726562 16.25585938 239.86328125 C12.01268212 239.86964761 8.15077377 240.05207243 4 241 C1.98083634 241.14956768 -0.04043574 241.27180839 -2.0625 241.375 C-7.63251484 241.74595386 -13.05447409 242.42164983 -18.5625 243.3125 C-28.81533972 244.95041043 -39.11744389 246.07392505 -49.4375 247.1875 C-50.26694122 247.27794586 -51.09638245 247.36839172 -51.95095825 247.46157837 C-54.34065068 247.72130634 -56.73075372 247.97677663 -59.12109375 248.23046875 C-59.84118622 248.30844696 -60.56127869 248.38642517 -61.30319214 248.46676636 C-64.88491855 248.84004392 -68.39848257 249.08628225 -72 249 C-71.84853516 249.99628418 -71.69707031 250.99256836 -71.54101562 252.01904297 C-70.96860999 255.80814942 -70.41388107 259.59968826 -69.86376953 263.39208984 C-69.62587782 265.0158205 -69.38354578 266.63890841 -69.13623047 268.26123047 C-67.78854556 277.12294631 -66.74688882 285.9116601 -66.59375 294.8828125 C-66.55767639 295.99666824 -66.55767639 295.99666824 -66.52087402 297.13302612 C-66.52192506 300.77261288 -66.90676632 302.84942414 -68.83789062 305.96826172 C-71 308 -71 308 -74 308.625 C-77.98659573 307.79445922 -78.74942473 306.32682481 -81 303 C-85.48690049 290.13832585 -85.78621287 275.17021451 -87.29956055 261.71948242 C-89.72836037 236.50444023 -89.72836037 236.50444023 -103.1875 215.75 C-123.8234149 199.37732906 -156.18619404 202.56878459 -181 202 C-181 201.67 -181 201.34 -181 201 C-177.7 201 -174.4 201 -171 201 C-171.02094727 199.59830566 -171.04189453 198.19661133 -171.06347656 196.75244141 C-171.13627796 191.51556755 -171.18194533 186.27873779 -171.21972656 181.04150391 C-171.23975089 178.78166157 -171.26697862 176.52187045 -171.30175781 174.26220703 C-171.35068078 171.00019638 -171.37306132 167.73887513 -171.390625 164.4765625 C-171.41127014 163.47823395 -171.43191528 162.4799054 -171.45318604 161.45132446 C-171.45640098 151.23326422 -168.30570712 143.44748046 -161.28125 136.04296875 C-152.58794518 128.25769748 -143.51011544 125.78801556 -132.1484375 124.9453125 C-130.56450699 124.82133591 -130.56450699 124.82133591 -128.94857788 124.69485474 C-117.51859673 123.83318673 -106.07829923 123.30511066 -94.625 122.875 C-93.55158356 122.83430389 -92.47816711 122.79360779 -91.3722229 122.75167847 C-83.91561464 122.47360692 -76.45833199 122.22681759 -69 122 C-68.08744446 121.97145935 -67.17488892 121.9429187 -66.23468018 121.91351318 C-61.42612355 121.76692517 -56.61899648 121.65163978 -51.80853271 121.59259033 C-49.76936862 121.56366144 -47.7305733 121.51156203 -45.69189453 121.45849609 C-30.75456084 121.39028909 -19.82416747 127.17751653 -9 137 C-5.58076171 140.75987669 -3.27111595 144.4577681 -1 149 C-0.67 99.83 -0.34 50.66 0 0 Z " fill="#0E1A2F" transform="translate(516,277)"/>
<path d="M0 0 C62.51621102 -0.75727799 62.51621102 -0.75727799 80.20703125 14.9609375 C88.69141601 23.68143686 91.58311565 34.46587679 93.0625 46.25 C93.21968506 47.38880615 93.37687012 48.5276123 93.53881836 49.70092773 C94.43554883 56.29903233 95.23530698 62.90869551 96.03125 69.51953125 C96.11781357 70.23227203 96.20437714 70.94501282 96.29356384 71.67935181 C96.71542067 75.1556179 97.12779075 78.63231737 97.51782227 82.11230469 C98.43956157 94.46498825 98.43956157 94.46498825 104 105 C106.95769177 105.50010524 106.95769177 105.50010524 110 105 C112.55433542 102.61955126 112.98619977 101.10754237 113.43359375 97.62109375 C113.45671657 96.22675361 113.45622733 94.83190611 113.4375 93.4375 C113.43427734 92.6731665 113.43105469 91.90883301 113.42773438 91.12133789 C113.23168683 82.48088027 111.84266704 73.99171767 110.42358398 65.48022461 C109.3909758 59.21610261 108.78498035 53.34979913 109 47 C118.91262229 45.176989 128.86015025 44.06183538 138.875 43 C141.97688652 42.66961392 145.07847249 42.3366328 148.1796875 42 C148.930793 41.91854233 149.6818985 41.83708466 150.45576477 41.75315857 C156.34017471 41.10195776 162.18603378 40.27548929 168.04296875 39.41064453 C171.55684867 38.92267012 175.02107633 38.63401347 178.5625 38.4375 C182.9593737 38.20441376 182.9593737 38.20441376 187.2890625 37.484375 C191.45301558 36.74038338 195.59124433 36.81560615 199.8125 36.8125 C200.67681641 36.80025391 201.54113281 36.78800781 202.43164062 36.77539062 C216.09175477 36.74446206 228.18403125 41.43149265 238 51 C246.23137439 60.63212452 250.15561604 71.07570355 250.09765625 83.7109375 C250.09443359 84.95488281 250.09121094 86.19882812 250.08789062 87.48046875 C250.07951172 88.76566406 250.07113281 90.05085937 250.0625 91.375 C250.05798828 92.68339844 250.05347656 93.99179687 250.04882812 95.33984375 C250.03707594 98.55994281 250.02064543 101.7799477 250 105 C182.58899701 116.60489396 182.58899701 116.60489396 162.2355957 118.90283203 C153.24927328 119.92663637 144.31685745 121.2431782 135.38183594 122.64282227 C122.23335461 124.6671397 109.27906357 125.23257758 96 125.25 C95.18616852 125.25233643 94.37233704 125.25467285 93.53384399 125.25708008 C81.13115146 125.27051133 69.16710483 124.59729811 57 122 C56.87753906 122.69480469 56.75507813 123.38960937 56.62890625 124.10546875 C55.9414143 127.26963979 54.98142199 130.24808384 53.9375 133.3125 C53.57527344 134.38113281 53.21304688 135.44976563 52.83984375 136.55078125 C52.56269531 137.35902344 52.28554688 138.16726563 52 139 C50.33171353 138.73933024 48.66543177 138.46582623 47 138.1875 C45.6078125 137.96126953 45.6078125 137.96126953 44.1875 137.73046875 C40.27564642 136.8340023 36.73417811 135.46872307 33 134 C33.05760498 133.43079834 33.11520996 132.86159668 33.17456055 132.27514648 C33.99934374 123.10327437 33.99934374 123.10327437 33 114 C30.53068498 111.0724157 28.41690892 110.00434241 24.9609375 108.4140625 C16.95811904 104.59213601 12.03470455 96.04553952 9 88 C7.63967383 82.29485462 6.74114933 76.54757154 5.875 70.75 C5.62187563 69.12273689 5.36779814 67.49562178 5.11279297 65.86865234 C4.61534511 62.67460807 4.12864279 59.47919865 3.65039062 56.28222656 C3.12457942 52.78237961 2.55138949 49.29297469 1.953125 45.8046875 C-0.54835927 30.5781402 -0.30449632 15.38096819 0 0 Z " fill="#30A9E2" transform="translate(335,479)"/>
<path d="M0 0 C1.49541597 -0.01970598 2.9907518 -0.04759457 4.48583984 -0.08459473 C16.02356613 -0.35008945 25.55398228 1.38109153 35.03344727 8.46990967 C47.72315338 20.73750497 47.92896702 40.64497473 49.96313477 57.09100342 C50.45302254 60.98243978 51.07753619 64.80994294 51.84594727 68.65740967 C52.78514752 73.87617826 52.75113413 78.98518974 52.70922852 84.26678467 C52.70372986 85.5871875 52.70372986 85.5871875 52.69812012 86.93426514 C52.68860501 89.09199953 52.6740345 91.2497106 52.65844727 93.40740967 C46.12217539 94.40404317 39.58302415 95.37996627 33.04174805 96.34320068 C30.82851364 96.67140076 28.61591284 97.00390985 26.40405273 97.34124756 C10.80691816 99.71595922 -4.5643122 101.09668903 -20.34155273 101.40740967 C-20.70917725 100.04930176 -20.70917725 100.04930176 -21.08422852 98.66375732 C-23.12253523 91.28547055 -25.50751086 85.35612473 -30.34155273 79.40740967 C-30.8584668 78.74354248 -31.37538086 78.07967529 -31.90795898 77.39569092 C-36.1291595 72.5889995 -41.08613242 69.59777794 -46.65405273 66.59490967 C-47.34088135 66.22172607 -48.02770996 65.84854248 -48.73535156 65.46405029 C-59.38573189 59.99174857 -70.79923552 58.61989825 -82.52905273 57.21990967 C-83.97250304 57.04160778 -85.41586337 56.862576 -86.85913086 56.68280029 C-90.35227711 56.24927093 -93.84652812 55.82556041 -97.34155273 55.40740967 C-99.13457414 51.54983183 -99.59815696 48.49938055 -99.60717773 44.25897217 C-99.60975586 43.08850342 -99.61233398 41.91803467 -99.61499023 40.71209717 C-99.60725586 39.49780029 -99.59952148 38.28350342 -99.59155273 37.03240967 C-99.59928711 35.82584717 -99.60702148 34.61928467 -99.61499023 33.37615967 C-99.58477171 19.62673204 -99.58477171 19.62673204 -95.89624023 14.33319092 C-88.30702767 7.04401699 -81.10413046 4.3476252 -70.63452148 3.94256592 C-68.84415254 3.86502989 -67.05378812 3.78738915 -65.26342773 3.70965576 C-64.32692383 3.67056091 -63.39041992 3.63146606 -62.42553711 3.59118652 C-44.10374019 2.86126673 -44.10374019 2.86126673 -25.84155273 1.28240967 C-17.24008371 0.38465161 -8.64288925 0.10106641 0 0 Z " fill="#3DCFCE" transform="translate(459.341552734375,410.59259033203125)"/>
<path d="M0 0 C11.93726093 0.16311785 23.69591253 1.30699894 35.51254272 2.93399048 C37.02362464 3.14161011 38.53536033 3.34453586 40.04776001 3.54232788 C56.90761539 5.76855395 71.1490991 9.25356265 83.0625 22.25 C90.82733408 33.27105482 91.31049276 46.13015169 91.3359375 59.2109375 C91.3459227 61.02859116 91.3459227 61.02859116 91.35610962 62.88296509 C91.36616297 65.4224497 91.37092893 67.96196035 91.37060547 70.50146484 C91.37501194 74.38552639 91.41150182 78.26848008 91.44921875 82.15234375 C91.45508178 84.63020448 91.45905461 87.10807055 91.4609375 89.5859375 C91.47530853 90.74225677 91.48967957 91.89857605 91.50448608 93.0899353 C91.46880299 99.36437776 91.26623909 103.25526239 87 108 C85 109.71484375 85 109.71484375 83 110.9375 C82.34 111.35902344 81.68 111.78054688 81 112.21484375 C78.55231517 113.17575127 77.46679639 112.72237306 75 112 C74.93006836 111.18958252 74.86013672 110.37916504 74.78808594 109.54418945 C74.51592107 106.46964533 74.230976 103.39659906 73.93798828 100.32397461 C73.755116 98.36724117 73.58633794 96.40920656 73.41796875 94.45117188 C72.39220245 83.84258878 70.70317104 73.0395087 64.5625 64.0625 C63.72912109 62.81146484 63.72912109 62.81146484 62.87890625 61.53515625 C58.81767518 56.05544947 55.20201828 52.00480052 49.375 48.375 C48.76398437 47.98820068 48.15296875 47.60140137 47.5234375 47.20288086 C42.26655096 43.9727705 36.90584944 41.78098272 31 40 C30.11054687 39.66097656 29.22109375 39.32195312 28.3046875 38.97265625 C23.94175216 37.68852989 19.64225198 37.28998851 15.125 36.875 C14.24585938 36.78863281 13.36671875 36.70226562 12.4609375 36.61328125 C10.30788892 36.40265693 8.15401751 36.20047292 6 36 C3.45360638 29.97492657 2.38961717 24.62330313 1.875 18.125 C1.72990085 16.43981339 1.58161994 14.75489678 1.4296875 13.0703125 C1.37022949 12.33570801 1.31077148 11.60110352 1.24951172 10.84423828 C1.0887484 8.90811415 1.0887484 8.90811415 0 7 C-0.04022391 4.6670134 -0.04320247 2.33293334 0 0 Z " fill="#38C3CB" transform="translate(524,466)"/>
<path d="M0 0 C0.15498126 10.71092709 -0.32157806 21.31485445 -1 32 C-15.72540181 29.10751036 -29.89558957 23.71762741 -44 18.6875 C-45.56500671 18.13188689 -47.13011051 17.57654715 -48.6953125 17.02148438 C-52.46466189 15.68412039 -56.23270048 14.34312696 -60 13 C-60 12.34 -60 11.68 -60 11 C-46.9959626 8.20967515 -33.96711582 5.5627421 -20.8984375 3.09356689 C-19.46916944 2.82342711 -18.04013094 2.55206979 -16.61132812 2.27947998 C-14.59055881 1.8946416 -12.56890261 1.51488313 -10.546875 1.13671875 C-8.79648926 0.80740356 -8.79648926 0.80740356 -7.01074219 0.47143555 C-4 0 -4 0 0 0 Z " fill="#2890D2" transform="translate(598,595)"/>
<path d="M0 0 C2.825625 0.78375 5.65125 1.5675 8.5625 2.375 C9.43849854 2.61782715 10.31449707 2.8606543 11.21704102 3.11083984 C15.81710505 4.38774074 20.41154706 5.68197459 25 7 C24.01 7.495 24.01 7.495 23 8 C22.62086538 9.65684816 22.29774806 11.32660973 22 13 C21.33987941 15.11291609 20.65131299 17.21711349 19.9375 19.3125 C19.57527344 20.38113281 19.21304687 21.44976563 18.83984375 22.55078125 C18.56269531 23.35902344 18.28554688 24.16726563 18 25 C16.33171353 24.73933024 14.66543177 24.46582623 13 24.1875 C12.071875 24.03667969 11.14375 23.88585937 10.1875 23.73046875 C6.35580378 22.8523717 2.68073255 21.38027471 -1 20 C-0.67 13.4 -0.34 6.8 0 0 Z " fill="#1949B0" transform="translate(369,593)"/>
<path d="M0 0 C0 7.59 0 15.18 0 23 C-5.28 23 -10.56 23 -16 23 C-16.33 16.07 -16.66 9.14 -17 2 C-10 0 -10 0 0 0 Z " fill="#2176D4" transform="translate(472,617)"/>
<path d="M0 0 C3.77337326 3.34384686 4.3987682 7.14888459 5 12 C5.22195679 16.85830888 5.18966093 21.70049558 5.125 26.5625 C5.11597656 27.85736328 5.10695313 29.15222656 5.09765625 30.48632812 C5.07425094 33.65774771 5.04146228 36.82877373 5 40 C3.68 39.67 2.36 39.34 1 39 C1.495 38.505 1.495 38.505 2 38 C2.25731307 33.52707714 2.1852479 29.04192453 2.1875 24.5625 C2.20586914 22.69174805 2.20586914 22.69174805 2.22460938 20.78320312 C2.23592344 13.60631215 1.79052543 6.9622527 0 0 Z " fill="#46D5CC" transform="translate(580,544)"/>
<path d="M0 0 C4.58328022 -0.05802751 9.16646604 -0.09360593 13.75 -0.125 C15.05195313 -0.14175781 16.35390625 -0.15851563 17.6953125 -0.17578125 C18.94570313 -0.18222656 20.19609375 -0.18867188 21.484375 -0.1953125 C22.63647461 -0.20578613 23.78857422 -0.21625977 24.97558594 -0.22705078 C27.89892966 -0.00758762 29.53732509 0.47271878 32 2 C28.49172762 3.16942413 25.33619174 3.14911789 21.6875 3.125 C20.6346582 3.12209961 20.6346582 3.12209961 19.56054688 3.11914062 C12.68055032 3.06350723 5.85410151 2.59973388 -1 2 C-0.67 1.34 -0.34 0.68 0 0 Z " fill="#3AC0D9" transform="translate(339,479)"/>
<path d="M0 0 C0 3 0 3 -2.11132812 5.4519043 C-3.07697101 6.41707201 -4.05087603 7.37401783 -5.03125 8.32421875 C-5.54175903 8.83048294 -6.05226807 9.33674713 -6.57824707 9.85835266 C-8.21193407 11.47523405 -9.85573744 13.08138126 -11.5 14.6875 C-12.6087547 15.78121031 -13.71683647 16.87560326 -14.82421875 17.97070312 C-17.54173139 20.65512158 -20.26836361 23.3299581 -23 26 C-23.33 25.34 -23.66 24.68 -24 24 C-19.68925529 18.81143091 -15.07114208 13.9621577 -10.3125 9.1875 C-9.75409424 8.62458252 -9.19568848 8.06166504 -8.62036133 7.48168945 C-5.88268827 4.75384499 -3.18769209 2.21044342 0 0 Z " fill="#1D273C" transform="translate(293,259)"/>
<path d="M0 0 C0.99 0 1.98 0 3 0 C3.0270817 2.72923388 3.04687847 5.45819637 3.0625 8.1875 C3.07087891 8.95642578 3.07925781 9.72535156 3.08789062 10.51757812 C3.10491934 14.48526789 2.98604115 18.12571234 2 22 C1.01 22 0.02 22 -1 22 C-0.9278125 20.74703125 -0.855625 19.4940625 -0.78125 18.203125 C-0.687441 16.55208668 -0.59369426 14.90104483 -0.5 13.25 C-0.45230469 12.425 -0.40460938 11.6 -0.35546875 10.75 C-0.31035156 9.95078125 -0.26523437 9.1515625 -0.21875 8.328125 C-0.17685547 7.5949707 -0.13496094 6.86181641 -0.09179688 6.10644531 C-0.00316662 4.07266386 0 2.03571175 0 0 Z " fill="#2898E5" transform="translate(469,617)"/>
<path d="M0 0 C1.13566705 3.40700114 1.09760098 5.97659956 1.0625 9.56640625 C1.05476563 10.85611328 1.04703125 12.14582031 1.0390625 13.47460938 C1.02661983 14.83724499 1.01359227 16.19987537 1 17.5625 C0.97345576 20.23051199 0.95351677 22.89827866 0.9375 25.56640625 C0.92589844 26.75177979 0.91429687 27.93715332 0.90234375 29.15844727 C0.80087847 31.94861435 0.80087847 31.94861435 2 34 C5.02934491 34.65772428 5.02934491 34.65772428 8 35 C8 35.33 8 35.66 8 36 C1.84765625 36.09765625 1.84765625 36.09765625 0 36 C-1.70018003 34.29981997 -1.12801936 32.17429865 -1.13894653 29.90663147 C-1.1369223 29.19623215 -1.13489807 28.48583282 -1.1328125 27.75390625 C-1.13376923 27.02759506 -1.13472595 26.30128387 -1.13571167 25.55296326 C-1.13639344 24.0137422 -1.13453937 22.47451829 -1.13037109 20.93530273 C-1.12503043 18.57594343 -1.13031215 16.21677516 -1.13671875 13.85742188 C-1.13605782 12.36458291 -1.13477634 10.87174407 -1.1328125 9.37890625 C-1.13483673 8.67053116 -1.13686096 7.96215607 -1.13894653 7.23231506 C-1.11495714 2.22991429 -1.11495714 2.22991429 0 0 Z " fill="#154368" transform="translate(360,431)"/>
<path d="M0 0 C0.33 0 0.66 0 1 0 C1.53590819 2.66440231 2.05389262 5.33036648 2.5625 8 C2.71396484 8.74378906 2.86542969 9.48757813 3.02148438 10.25390625 C3.99910316 15.48302996 3.90028487 19.75330671 3 25 C6.465 24.505 6.465 24.505 10 24 C8.25 25.5625 8.25 25.5625 6 27 C3.859375 26.58984375 3.859375 26.58984375 2 26 C1.66103732 23.16724047 1.32870306 20.33395339 1 17.5 C0.90460937 16.70851563 0.80921875 15.91703125 0.7109375 15.1015625 C0.12892118 10.02970596 -0.09367085 5.10506141 0 0 Z " fill="#268AAB" transform="translate(597,552)"/>
<path d="M0 0 C0.33 0 0.66 0 1 0 C1.33 1.98 1.66 3.96 2 6 C2.55985596 6.0501123 3.11971191 6.10022461 3.6965332 6.15185547 C6.23607956 6.38413587 8.77420691 6.62941785 11.3125 6.875 C12.63411133 6.99294922 12.63411133 6.99294922 13.98242188 7.11328125 C14.82998047 7.19707031 15.67753906 7.28085937 16.55078125 7.3671875 C17.33106689 7.44050293 18.11135254 7.51381836 18.9152832 7.58935547 C21 8 21 8 24 10 C20.18718055 9.86184471 16.37484283 9.71319438 12.5625 9.5625 C11.47388672 9.52318359 10.38527344 9.48386719 9.26367188 9.44335938 C8.22919922 9.40146484 7.19472656 9.35957031 6.12890625 9.31640625 C5.17056885 9.27974854 4.21223145 9.24309082 3.22485352 9.20532227 C1 9 1 9 0 8 C-0.14115161 5.32941149 -0.04247107 2.67567762 0 0 Z " fill="#154F76" transform="translate(528,495)"/>
<path d="M0 0 C0.66 0.33 1.32 0.66 2 1 C-2.03523352 5.81123996 -6.04467233 10.13242719 -11 14 C-11 10.30159372 -10.17133056 9.68584567 -7.75 7 C-7.14671875 6.319375 -6.5434375 5.63875 -5.921875 4.9375 C-4.06233388 3.06284066 -2.15205789 1.52358081 0 0 Z " fill="#0F3A52" transform="translate(361,408)"/>
<path d="M0 0 C1.32 0 2.64 0 4 0 C4.02722517 2.20826378 4.04649729 4.41662638 4.0625 6.625 C4.07410156 7.85476563 4.08570313 9.08453125 4.09765625 10.3515625 C4.00863924 13.67723791 3.63686087 16.74047588 3 20 C2.67 20 2.34 20 2 20 C2 14.06 2 8.12 2 2 C1.34 2 0.68 2 0 2 C0 1.34 0 0.68 0 0 Z " fill="#2CA6BD" transform="translate(594,595)"/>
<path d="M0 0 C0.33 0 0.66 0 1 0 C1 8.91 1 17.82 1 27 C-1.8290723 24.1709277 -2.37611108 23.61855575 -3 20 C-2.34 20 -1.68 20 -1 20 C-0.67 13.4 -0.34 6.8 0 0 Z " fill="#27A396" transform="translate(515,400)"/>
<path d="M0 0 C-1.2065625 0.4021875 -1.2065625 0.4021875 -2.4375 0.8125 C-3.283125 1.204375 -4.12875 1.59625 -5 2 C-5.33 2.99 -5.66 3.98 -6 5 C-8.31 4.34 -10.62 3.68 -13 3 C-13 2.34 -13 1.68 -13 1 C-11.58622218 0.63447197 -10.16879424 0.28304505 -8.75 -0.0625 C-7.96109375 -0.25972656 -7.1721875 -0.45695313 -6.359375 -0.66015625 C-3.89605178 -1.01497267 -2.34395868 -0.76877544 0 0 Z " fill="#2472C3" transform="translate(551,605)"/>
<path d="M0 0 C0.66 0 1.32 0 2 0 C1.67 2.64 1.34 5.28 1 8 C0.34 8 -0.32 8 -1 8 C-0.67 5.36 -0.34 2.72 0 0 Z " fill="#2F3546" transform="translate(193,425)"/>
</svg>
